<svg id="Layer_1" data-name="Layer 1" xmlns="http://www.w3.org/2000/svg" viewBox="0 0 52.51 51.82"><defs><style>.cls-1{fill:#77c373;}.cls-2{fill:#034e70;}.cls-3{fill:#2490cc;}.cls-4{fill:#212833;}</style></defs><title>Vector Smart Object</title><path class="cls-1" d="M344.4,169.16c-1.77-2.31-3.32-4.47-4.64-6.42-1.46,5.15-1.86,9.27-1.16,12,1.7,6.52,15.16,9.48,18.88,10.18l-3.61-4.11C353.37,180.19,348.9,175.07,344.4,169.16Z" transform="translate(-337.09 -133.06)"/><path class="cls-2" d="M337.1,151.16c.22,5.67,14,22.11,17.83,26.63l-.63-2.36c-.63-2.33-6-22.74-6-33.58C343.8,143.57,336.93,146.91,337.1,151.16Z" transform="translate(-337.09 -133.06)"/><path class="cls-3" d="M377.37,134.45l-.84-.67a3.09,3.09,0,0,0-1.89-.72,2.27,2.27,0,0,0-2.17,1.91l-11.6,34.91c4.62-2.44,27.17-14.64,28.63-20.52C390.6,145,382.32,138.38,377.37,134.45Z" transform="translate(-337.09 -133.06)"/><path class="cls-4" d="M358.89,134.43c-4,0-6.53,1.13-7.38,3.37-2.3,6,3.67,30.06,5.13,35.72l3.31-9.58,9.25-27.82A40.32,40.32,0,0,0,358.89,134.43Z" transform="translate(-337.09 -133.06)"/></svg>